<svg xmlns="http://www.w3.org/2000/svg" width="19" height="19" viewBox="0 0 19 19">
  <path id="social_media_social_media_logo_facebook" data-name="social; media; social media; logo; facebook" d="M19.42,2.5H3.58A1.08,1.08,0,0,0,2.5,3.58V19.42A1.08,1.08,0,0,0,3.58,20.5h8.28V14.74H9.7V11.86h2.16V9.7a3.6,3.6,0,0,1,3.6-3.6h2.16V8.98H16.18a1.44,1.44,0,0,0-1.44,1.44v1.44h2.88l-.36,2.88H14.74V20.5h4.68a1.08,1.08,0,0,0,1.08-1.08V3.58A1.08,1.08,0,0,0,19.42,2.5Z" transform="translate(-2 -2)" fill="none" stroke="#3d545a" stroke-linecap="round" stroke-linejoin="round" stroke-miterlimit="10" stroke-width="1"/>
</svg>
