<svg xmlns="http://www.w3.org/2000/svg" width="17.632" height="15.725" viewBox="0 0 17.632 15.725">
  <path id="surface1" d="M8.938,19.755h3.816a2.307,2.307,0,0,0,1.63-.675l4.606-4.606a2.3,2.3,0,0,0,0-3.256L12.474,4.7a2.3,2.3,0,0,0-3.256,0L2.7,11.218a2.3,2.3,0,0,0,0,3.256L7.31,19.08A2.3,2.3,0,0,0,8.938,19.755Zm-.983-4.374-.365-.364a.381.381,0,0,1,0-.543L10.3,11.761a.384.384,0,0,1,.543,0l.814.814a.384.384,0,0,1,0,.543L9.4,15.381a.384.384,0,0,1-.271.112h-.9a.384.384,0,0,1-.271-.112Zm3.977,1.807-.365.366a.384.384,0,0,1-.271.112h-.9a.384.384,0,0,1-.271-.112l-.365-.366a.384.384,0,0,1,0-.543l.814-.814a.384.384,0,0,1,.543,0l.814.814a.384.384,0,0,1,0,.543ZM5.419,12.3,10.3,7.418a.384.384,0,0,1,.543,0l.814.814a.384.384,0,0,1,0,.543L7.225,13.211a.386.386,0,0,1-.271.112h-.9a.384.384,0,0,1-.271-.112l-.365-.364a.384.384,0,0,1,0-.543Z" transform="translate(-2.03 -4.03)" fill="#3d545a"/>
</svg>
